Coordinates
version=1
nRows=26
nColumns=24
inDegrees=yes

Units are S.I. units (second, meters, Newtons, ...)
Angles are in degrees.

endheader
time	pelvis_tilt	pelvis_list	pelvis_rotation	pelvis_tx	pelvis_ty	pelvis_tz	hip_flexion_r	hip_adduction_r	hip_rotation_r	knee_angle_r	ankle_angle_r	subtalar_angle_r	mtp_angle_r	hip_flexion_l	hip_adduction_l	hip_rotation_l	knee_angle_l	ankle_angle_l	subtalar_angle_l	mtp_angle_l	lumbar_extension	lumbar_bending	lumbar_rotation
      0.88366667	     -0.93187734	     -2.71638754	      3.43825815	     -0.32307185	      0.98459795	      0.34645609	     14.41351132	      7.97745838	     -1.19714748	    -23.72921106	     10.34478332	    -14.14281901	     -3.19224063	     17.84086357	     -2.73254677	      1.27346619	    -71.65051289	     -1.64002348	    -10.57681816	     -1.17735092	      1.67753500	      6.24399533	      1.60445830
      0.88783333	     -0.81514860	     -2.65103310	      3.32037337	     -0.31802762	      0.98563978	      0.34675674	     13.71537351	      7.93560347	     -1.20273189	    -23.27216253	     10.41345514	    -13.83406357	     -3.24092833	     18.36072040	     -2.65390178	      1.22061956	    -71.48145848	     -1.07118253	    -10.74489090	     -1.22428347	      1.50432298	      6.18988724	      1.79131246
      0.89200000	     -0.75352972	     -2.59481632	      3.19234521	     -0.31301831	      0.98654572	      0.34706481	     13.08987819	      7.89715216	     -1.21095157	    -22.83388780	     10.48190228	    -13.51105114	     -3.28371774	     18.93727283	     -2.58430148	      1.16478504	    -71.28107114	     -0.51898668	    -10.90176107	     -1.28127897	      1.39262071	      6.14499603	      1.98279684
      0.89616667	     -0.66460632	     -2.52410677	      3.06129114	     -0.30801642	      0.98748534	      0.34736023	     12.43069342	      7.84166121	     -1.21315169	    -22.38623255	     10.54359352	    -13.18070045	     -3.31528805	     19.46418297	     -2.49813047	      1.10838350	    -71.01881384	     -0.00394439	    -11.05686797	     -1.34176222	      1.23698553	      6.09108621	      2.16369925
      0.90033333	     -0.58026304	     -2.46336058	      2.92718020	     -0.30301771	      0.98837716	      0.34765359	     11.77884521	      7.79300461	     -1.22639974	    -21.93955566	     10.60188638	    -12.83701221	     -3.33774362	     19.98472470	     -2.42711288	      1.04919652	    -70.71369659	      0.48786044	    -11.19191558	     -1.40777495	      1.09125840	      6.04520804	      2.35178481
      0.90450000	     -0.51397768	     -2.40310007	      2.78295256	     -0.29804405	      0.98919379	      0.34795111	     11.15521573	      7.74035723	     -1.23948782	    -21.50420559	     10.66026232	    -12.48014659	     -3.35120029	     20.51469586	     -2.35804662	      0.98580945	    -70.36938855	      0.95533255	    -11.31139202	     -1.48026861	      0.96572346	      5.99932968	      2.54403142
      0.90866667	     -0.43650153	     -2.34306715	      2.63341525	     -0.29307850	      0.98999155	      0.34825426	     10.52155563	      7.68641703	     -1.25709410	    -21.07103824	     10.71624884	    -12.13229272	     -3.35443067	     21.01787535	     -2.29669147	      0.91321850	    -69.97891160	      1.39153351	    -11.41898948	     -1.55115195	      0.82679799	      5.94353386	      2.72941473
      0.91283333	     -0.35189713	     -2.27103274	      2.48720785	     -0.28810979	      0.99079242	      0.34853212	      9.87794233	      7.61573930	     -1.27274573	    -20.63253306	     10.77109477	    -11.74840789	     -3.34857567	     21.49161904	     -2.21369990	      0.85472435	    -69.52746177	      1.78876058	    -11.49401176	     -1.63680918	      0.67437704	      5.89257675	      2.93694956
      0.91700000	     -0.28937978	     -2.21055595	      2.32945080	     -0.28316418	      0.99149819	      0.34881963	      9.26834818	      7.55431445	     -1.28691021	    -20.20816712	     10.82290634	    -11.36797742	     -3.33312039	     21.98172166	     -2.15052833	      0.78647433	    -69.04635234	      2.16846317	    -11.55181153	     -1.72505641	      0.54960114	      5.84760685	      3.13828157
      0.92116667	     -0.22733205	     -2.13807277	      2.16521344	     -0.27822728	      0.99216896	      0.34911202	      8.66579856	      7.47780885	     -1.30000986	    -19.79708378	     10.87818610	    -10.98425954	     -3.30871131	     22.45346401	     -2.07551073	      0.71419034	    -68.51574445	      2.51853030	    -11.58960468	     -1.81358429	      0.42185117	      5.78918842	      3.34093568
      0.92533333	     -0.16846864	     -2.06519881	      1.99905616	     -0.27329384	      0.99281033	      0.34939331	      8.06904104	      7.39689219	     -1.31911509	    -19.38681287	     10.93209666	    -10.58774070	     -3.27293255	     22.91204084	     -2.00117139	      0.64214970	    -67.93908560	      2.84473595	    -11.61134154	     -1.91157784	      0.29649953	      5.72525660	      3.55301879
      0.92950000	     -0.09907411	     -2.00590350	      1.82804565	     -0.26836944	      0.99341118	      0.34968992	      7.46285399	      7.33147976	     -1.32775384	    -18.97662794	     10.98138961	    -10.20783357	     -3.22893769	     23.34639280	     -1.94809875	      0.56980866	    -67.32673326	      3.15867983	    -11.59911127	     -2.00931733	      0.16256982	      5.67951046	      3.75451392
      0.93366667	     -0.05863669	     -1.94325810	      1.63294846	     -0.26345600	      0.99394339	      0.35001654	      6.89300242	      7.26518968	     -1.29382277	    -18.57371676	     11.01384890	     -9.87824884	     -3.19240961	     23.79174180	     -1.90317364	      0.47175060	    -66.66939798	      3.45834071	    -11.58390249	     -2.07459114	      0.06571438	      5.63436082	      3.91983130
      0.93783333	     -0.00576988	     -1.89166776	      1.45491555	     -0.25855039	      0.99444570	      0.35032427	      6.30671312	      7.20748064	     -1.27606102	    -18.15963685	     11.05084313	     -9.51651732	     -3.15057295	     24.21330145	     -1.86400288	      0.40161209	    -65.97686080	      3.74153915	    -11.51689362	     -2.13933156	     -0.05827445	      5.59491752	      4.12215747
      0.94200000	      0.02212904	     -1.84181214	      1.27460341	     -0.25365345	      0.99486100	      0.35062796	      5.75738507	      7.14695140	     -1.27223778	    -17.76389081	     11.10086344	     -9.15454011	     -3.10030301	     24.64837285	     -1.82620256	      0.33604960	    -65.24878793	      4.00131612	    -11.42991010	     -2.20973975	     -0.14772128	      5.55513884	      4.33653043
      0.94616667	      0.07532669	     -1.79752844	      1.12055119	     -0.24874919	      0.99526851	      0.35090407	      5.17762378	      7.08744788	     -1.30960303	    -17.36008466	     11.16407911	     -8.77399382	     -3.02654478	     25.04329783	     -1.78759700	      0.29586399	    -64.48258196	      4.23810928	    -11.32923679	     -2.30828214	     -0.26636906	      5.50866187	      4.57649059
      0.95033333	      0.11188601	     -1.74445351	      0.93676185	     -0.24385853	      0.99562364	      0.35120897	      4.62189715	      7.02054432	     -1.29753165	    -16.96633193	     11.21131547	     -8.41120731	     -2.94718132	     25.43068387	     -1.75072152	      0.22821296	    -63.66796166	      4.46965505	    -11.22660222	     -2.40514574	     -0.36726716	      5.46477550	      4.77931703
      0.95450000	      0.14311885	     -1.70977948	      0.75268281	     -0.23897106	      0.99591799	      0.35152577	      4.07211345	      6.97480168	     -1.27309717	    -16.57103088	     11.25663021	     -8.08549537	     -2.86846585	     25.81137851	     -1.73896806	      0.16362617	    -62.82437775	      4.69275384	    -11.10816494	     -2.49254518	     -0.45986750	      5.43936787	      4.97013791
      0.95866667	      0.16675334	     -1.66881925	      0.57193706	     -0.23409577	      0.99616694	      0.35182539	      3.53475362	      6.91875856	     -1.25048105	    -16.18213669	     11.30730990	     -7.75266920	     -2.78041580	     26.18143604	     -1.71469599	      0.11078665	    -61.93721881	      4.89955305	    -10.98577121	     -2.58340414	     -0.55143612	      5.41071977	      5.17280050
      0.96283333	      0.18423528	     -1.64136657	      0.39408945	     -0.22921359	      0.99635740	      0.35212803	      3.00289140	      6.87725157	     -1.22602635	    -15.78970219	     11.35849917	     -7.44246894	     -2.69140392	     26.54397674	     -1.70996572	      0.05651706	    -61.02027088	      5.09523622	    -10.85987707	     -2.66948237	     -0.62947705	      5.38886681	      5.35836300
      0.96700000	      0.21701211	     -1.61910934	      0.21572565	     -0.22432410	      0.99653472	      0.35243890	      2.45154500	      6.84056395	     -1.19396731	    -15.39166060	     11.40684760	     -7.14919305	     -2.60619028	     26.87002409	     -1.71551093	      0.00029497	    -60.06387926	      5.27695351	    -10.73243887	     -2.74618963	     -0.72235804	      5.37153973	      5.53678486
      0.97116667	      0.21748513	     -1.58292538	      0.02925991	     -0.21945572	      0.99660642	      0.35272935	      1.96200002	      6.77794643	     -1.20273174	    -15.04699286	     11.49598519	     -6.75305314	     -2.36747081	     27.21307012	     -1.70424571	     -0.06273907	    -59.07173470	      5.44425802	    -10.64872544	     -2.95625047	     -0.78052799	      5.33802240	      5.77459033
      0.97533333	      0.24427363	     -1.58188284	     -0.13309373	     -0.21455958	      0.99669074	      0.35303927	      1.40649667	      6.76726455	     -1.14851681	    -14.62418010	     11.52285463	     -6.54228982	     -2.28898342	     27.51469575	     -1.73402879	     -0.10536756	    -58.05072203	      5.60100101	    -10.50187771	     -3.01732992	     -0.86799463	      5.34361977	      5.88370848
      0.97950000	      0.24410013	     -1.58330491	     -0.31962558	     -0.20969060	      0.99668666	      0.35336064	      0.89853692	      6.75545084	     -1.06714347	    -14.23980123	     11.57501434	     -6.31452526	     -2.23615320	     27.82695350	     -1.77812704	     -0.17362869	    -56.99764794	      5.73926840	    -10.39138328	     -3.05461685	     -0.92525045	      5.35438993	      6.00203477
      0.98366667	      0.26008266	     -1.57719686	     -0.48452891	     -0.20480228	      0.99666223	      0.35365282	      0.37104335	      6.73075970	     -1.02703727	    -13.85134773	     11.63436298	     -6.06758069	     -2.18029763	     28.10183027	     -1.80509385	     -0.22721372	    -55.90567668	      5.87074233	    -10.28912259	     -3.09247345	     -1.00325458	      5.34948470	      6.15673761
      0.98783333	      0.26595665	     -1.58000917	     -0.62129278	     -0.19990177	      0.99655976	      0.35389299	     -0.13862432	      6.70698402	     -1.06690622	    -13.47563359	     11.71397996	     -5.76426214	     -2.07824721	     28.37791893	     -1.82813270	     -0.25604754	    -54.79229814	      5.99662205	    -10.21191101	     -3.16075625	     -1.06426108	      5.35339846	      6.36379705
